<?xml version="1.0" encoding="iso-8859-1"?>
<!-- Generator: Adobe Illustrator 19.0.0, SVG Export Plug-In . SVG Version: 6.00 Build 0)  -->
<svg version="1.1" id="Layer_1" xmlns="http://www.w3.org/2000/svg" xmlns:xlink="http://www.w3.org/1999/xlink" x="0px" y="0px"
	 viewBox="0 0 512 512" style="enable-background:new 0 0 512 512;" xml:space="preserve">
<g transform="translate(1 1)">
	<g>
		<g>
			<path d="M483.483,322.541c6.734-23.193,10.45-47.129,10.45-71.808c0-133.589-106.205-242.651-238.674-247.294L255,3.267h-5.12
				c-0.853,0-2.56,0-3.413,0s-2.56,0-3.413,0h-5.12l-0.259,0.173C105.205,8.082-1,117.145-1,250.733
				s106.205,242.651,238.674,247.294l0.259,0.173h5.12c0.853,0,2.56,0,3.413,0c28.992,0,57.981-5.326,84.821-15.249
				c18.883,14.902,42.759,23.782,68.779,23.782C461.507,506.733,511,457.24,511,395.8C511,367.675,500.624,342.058,483.483,322.541z
				 M161.837,373.822c24.515-7.244,50.04-11.296,76.096-12.023v114.259C204.998,447.361,179.268,412.485,161.837,373.822z
				 M237.933,344.725c-28.33,0.742-56.092,5.182-82.692,13.247c-11.922-31.151-18.632-64.438-19.588-98.706h102.28V344.725z
				 M16.241,259.267h102.342c0.961,36.074,8.002,71.191,20.518,104.099c-24.194,8.845-47.282,20.789-68.788,35.776
				C38.191,361.065,18.183,312.455,16.241,259.267z M74.261,97.767c21.375,13.781,44.069,24.84,67.71,33.054
				c-14.312,34.987-22.356,72.632-23.388,111.379H16.241C18.261,186.865,39.836,136.486,74.261,97.767z M237.933,131.132
				c-24.594-0.703-48.972-4.437-72.539-11.089c17.299-35.636,41.777-67.83,72.539-94.634V131.132z M277.204,22.384
				c49.761,6.649,94.52,29.206,128.987,62.388c-19.581,12.527-40.498,22.603-62.259,30.13
				C327.643,80.616,305.146,49.253,277.204,22.384z M327.539,120.043c-23.567,6.652-47.945,10.386-72.539,11.089V25.409
				C285.762,52.213,310.24,84.407,327.539,120.043z M149.001,114.902c-21.761-7.527-42.678-17.603-62.259-30.13
				c34.467-33.182,79.225-55.739,128.987-62.388C187.787,49.253,165.291,80.616,149.001,114.902z M135.653,242.2
				c1.033-37.04,8.789-72.935,22.584-106.223c25.739,7.403,52.46,11.519,79.696,12.232V242.2H135.653z M255,148.208
				c27.264-0.714,54.004-4.838,79.687-12.255c13.801,33.295,21.56,69.199,22.594,106.247H255V148.208z M374.351,242.2
				c-1.032-38.765-9.083-76.426-23.407-111.427c23.664-8.271,46.294-19.417,67.452-33.318
				c34.586,38.76,56.271,89.261,58.297,144.745H374.351z M81.572,411.55c20.105-13.482,41.575-24.321,64.022-32.407
				c16.499,37.185,40.19,71.144,70.136,99.94C163.439,472.096,116.677,447.538,81.572,411.55z M255,480.983V259.267h221.711
				c-0.608,17.209-3.066,33.801-7.375,49.777c-14.304-11.421-31.513-19.366-50.375-22.579c-0.053-0.009-0.105-0.017-0.158-0.026
				c-2.873-0.485-5.784-0.86-8.728-1.121c-0.279-0.025-0.557-0.051-0.836-0.074c-1.347-0.109-2.701-0.195-4.061-0.256
				c-0.276-0.012-0.553-0.021-0.83-0.031c-1.421-0.054-2.847-0.089-4.282-0.089c-61.44,0-110.933,49.493-110.933,110.933
				c0,0.887,0.012,1.773,0.033,2.659c0.015,0.664,0.043,1.326,0.07,1.987c0.007,0.174,0.011,0.349,0.02,0.524
				c0.941,20.69,7.503,39.867,18.201,56.055c2.957,4.551,6.239,8.905,9.836,13.016C296.997,476.806,276.038,480.257,255,480.983z
				 M400.067,489.667c-20.899,0-40.144-6.745-55.699-18.182l-5.741-4.858c-19.824-17.346-31.651-41.887-32.389-68.207
				c-0.001-0.025-0.002-0.049-0.003-0.074c-0.023-0.847-0.035-1.695-0.035-2.546c0-52.053,41.813-93.867,93.867-93.867
				c0.802,0,1.601,0.01,2.398,0.03c24.691,0.619,47.656,10.797,65.015,28.983l5.211,5.211c13.288,16.187,21.243,36.94,21.243,59.643
				C493.933,447.853,452.12,489.667,400.067,489.667z"/>
			<path d="M400.067,447c-5.12,0-8.533,3.413-8.533,8.533s3.413,8.533,8.533,8.533c5.12,0,8.533-3.413,8.533-8.533
				S405.187,447,400.067,447z"/>
			<path d="M400.067,319c-5.12,0-8.533,3.413-8.533,8.533V421.4c0,5.12,3.413,8.533,8.533,8.533c5.12,0,8.533-3.413,8.533-8.533
				v-93.867C408.6,322.413,405.187,319,400.067,319z"/>
		</g>
	</g>
</g>
<g>
</g>
<g>
</g>
<g>
</g>
<g>
</g>
<g>
</g>
<g>
</g>
<g>
</g>
<g>
</g>
<g>
</g>
<g>
</g>
<g>
</g>
<g>
</g>
<g>
</g>
<g>
</g>
<g>
</g>
</svg>
